<?xml version="1.0" encoding="UTF-8" standalone="no"?>
<!-- Created with Inkscape (http://www.inkscape.org/) -->

<svg
   width="195.2625mm"
   height="153.9875mm"
   viewBox="0 0 738.00001 581.99999"
   version="1.1"
   id="svg1"
   xml:space="preserve"
   sodipodi:docname="Castleonly.svg"
   inkscape:version="1.4.2 (ebf0e940d0, 2025-05-08)"
   xmlns:inkscape="http://www.inkscape.org/namespaces/inkscape"
   xmlns:sodipodi="http://sodipodi.sourceforge.net/DTD/sodipodi-0.dtd"
   xmlns="http://www.w3.org/2000/svg"
   xmlns:svg="http://www.w3.org/2000/svg"><sodipodi:namedview
     id="namedview1"
     pagecolor="#505050"
     bordercolor="#eeeeee"
     borderopacity="1"
     inkscape:showpageshadow="0"
     inkscape:pageopacity="0"
     inkscape:pagecheckerboard="0"
     inkscape:deskcolor="#505050"
     inkscape:document-units="mm"
     inkscape:zoom="0.96224838"
     inkscape:cx="371.5257"
     inkscape:cy="271.23974"
     inkscape:window-width="1920"
     inkscape:window-height="1052"
     inkscape:window-x="0"
     inkscape:window-y="0"
     inkscape:window-maximized="1"
     inkscape:current-layer="g1" /><defs
     id="defs1"><inkscape:path-effect
       effect="envelope"
       id="path-effect1"
       is_visible="true"
       lpeversion="1"
       yy="true"
       xx="true"
       bendpath1="m 307.68023,409.54197 74.07186,4.11466 55.24942,0.72204"
       bendpath2="m 431.62342,420.09716 -1.2834,43.59171"
       bendpath3="m 305.74305,471.55656 67.54364,-6.12077 58.50132,-1.91525"
       bendpath4="m 306.33544,416.8227 2.14919,50.0988"
       bendpath1-nodetypes="ccc"
       bendpath3-nodetypes="ccc"
       bendpath4-nodetypes="cc"
       bendpath2-nodetypes="cc" /></defs><g
     id="g1"
     transform="translate(7.2391832,-23.796699)"><path
       id="path11"
       style="display:inline;fill:none;fill-opacity:1;stroke:#2d2d2f;stroke-width:5.4702;stroke-linecap:round;stroke-linejoin:round;stroke-dasharray:none;stroke-opacity:1;paint-order:markers stroke fill"
       d="m 362.99756,250.26091 c -1.1533,-19.26378 2.149,-36.8909 4.5432,-54.97219 46.6431,-4.97476 92.3775,-5.61176 139.0206,-4.54315 m -112.3296,57.92524 c -50.2316,4.0772 -45.3129,6.31607 -63.1498,9.31346 -1.1026,22.64007 -1.5861,45.28013 0.9086,67.92019"
       inkscape:label="Body"
       sodipodi:nodetypes="cccccc" /><path
       style="fill:#02ff68;fill-opacity:1;stroke:none;stroke-width:4.2546;stroke-linecap:butt;stroke-linejoin:round;stroke-dasharray:none;stroke-opacity:1;paint-order:markers stroke fill"
       d="m 340.06476,129.41539 c -1.1168,12.1014 -5.9176,69.41373 0.5597,96.82581 0.2901,1.2275 1.588,2.25219 2.8489,2.29316 39.5452,1.28476 61.2058,-3.84363 67.7771,-5.75174 1.2107,-0.35154 2.1826,-1.71198 2.1928,-2.97355 0.2467,-30.29044 1.4691,-60.82483 -1.1689,-90.39413 -0.112,-1.25604 -1.2297,-2.36073 -2.4875,-2.45831 -21.5632,-1.67287 -44.1676,-1.26306 -67.2247,0.0519 -1.2595,0.0718 -2.3815,1.15061 -2.4974,2.40687 z m 155.7981,-1.36624 c -3.041,28.61838 -2.3488,57.23676 -1.6257,85.85514 0.032,1.26085 1.0432,2.55807 2.2717,2.84469 24.844,5.79647 68.3179,-0.0487 78.6682,-1.57924 1.2477,-0.18452 2.2613,-1.36816 2.2673,-2.62976 0.049,-10.47684 0.309,-54.56287 1.268,-81.30148 0.045,-1.2592 -0.9349,-2.35421 -2.1932,-2.44526 -25.4904,-1.84436 -51.1269,-3.4694 -78.1233,-3.05471 -1.2614,0.0194 -2.3997,1.05608 -2.533,2.31062 z"
       id="path12"
       inkscape:label="Eyes"
       sodipodi:nodetypes="cccccccccc" /><path
       id="path1"
       style="display:inline;opacity:1;fill:#2d2d2f;fill-opacity:1"
       inkscape:label="Castle roof"
       d="M 603.78466 143.58279 C 598.94214 143.73324 594.76888 147.24083 593.21373 148.72478 C 592.84578 149.07588 592.56549 149.79047 592.56548 150.29911 L 592.56396 166.64055 C 592.56393 168.02529 593.33351 168.32411 594.39941 167.44213 C 596.98872 165.29961 601.98663 162.10263 607.22024 163.85017 C 611.07868 165.13853 616.5501 169.71065 623.46451 166.44774 L 623.46451 182.7497 L 546.45908 305.24062 A 2.3484134 2.3484134 0 0 0 547.35327 308.56994 L 550.01156 309.96664 C 555.39271 307.15908 581.77815 289.2318 620.51474 289.61424 C 640.24614 289.80904 663.3584 295.10709 688.17896 308.86901 L 690.98451 307.46168 A 1.3500961 1.3500961 0 0 0 691.58722 305.65356 L 673.55152 269.31042 C 675.68866 268.47314 677.6019 267.25332 679.09128 265.41179 C 681.50285 262.43001 682.03751 258.22161 681.05273 253.97704 C 680.03807 249.60373 677.19202 245.25087 672.31878 243.91622 C 671.10047 243.58255 669.84326 243.45582 668.55527 243.52909 C 666.37261 243.65325 664.10144 244.35201 661.77822 245.58771 L 630.52698 182.61307 L 630.52698 143.77104 L 623.46451 143.77863 L 623.46451 146.67679 C 616.5501 149.9397 611.07868 145.3691 607.22024 144.08074 C 606.05543 143.69181 604.90216 143.54807 603.78466 143.58279 z M 669.39785 247.76626 C 673.42901 247.83294 675.98581 250.94951 676.9112 254.93803 C 678.51461 261.84906 675.09183 265.03677 668.55983 266.30902 C 648.0082 270.31187 635.04317 260.45656 630.17628 254.75889 C 627.42986 251.54355 622.72272 251.96763 618.39691 252.20383 C 622.50694 249.61824 627.64858 248.47852 631.3817 250.45492 C 639.7154 256.11277 652.17543 258.55279 659.10323 252.60918 C 663.19127 249.10189 666.63969 247.72064 669.39785 247.76626 z M 620.76371 293.84837 C 583.82778 293.62973 554.86966 312.76612 554.86966 312.76612 L 554.86966 320.61499 A 0.89702432 0.89702432 0 0 1 553.99824 321.51222 L 548.08958 321.6777 C 548.60415 325.92819 548.47974 329.11211 548.47974 329.11211 C 544.73279 329.56218 543.23814 331.32706 543.48501 334.10684 C 555.08133 333.70556 556.93985 341.8907 585.43622 369.5649 C 590.72549 374.70153 602.10492 373.03709 611.65478 370.06437 C 616.28148 368.27771 620.90858 366.38447 625.53528 365.96535 C 609.00305 373.49308 607.93381 377.91762 594.71519 382.06236 C 581.49657 386.20709 570.4287 378.16742 566.78567 373.05362 C 561.61891 365.8008 558.70243 364.03776 553.77811 360.6093 C 542.15349 352.51596 520.54708 353.03698 515.57371 342.00581 C 510.52769 330.81343 509.72397 322.65361 510.97369 316.64349 C 511.05411 316.22318 511.15397 315.8039 511.26366 315.38494 C 511.91428 312.97436 512.87308 310.90249 514.06466 309.20149 A 2.1259823 2.1259823 0 0 0 513.23119 306.80736 A 2.1259823 2.1259823 0 0 0 511.63864 306.4764 A 2.1259823 2.1259823 0 0 0 510.27838 307.37059 C 506.83528 312.43657 505.97022 317.87165 506.33421 322.84971 L 499.92759 323.03037 C 499.97909 319.8546 499.34723 316.26051 497.29359 312.70084 A 2.1259823 2.1259823 0 0 0 494.38935 311.92051 A 2.1259823 2.1259823 0 0 0 493.61054 314.82474 C 495.2561 317.67707 495.74156 320.5819 495.67827 323.14879 L 446.36552 324.53335 C 442.92604 331.94145 438.91434 338.94996 434.66661 345.44747 C 430.88755 344.73962 426.64688 344.64324 422.44545 345.71922 C 414.99837 347.62638 408.90366 353.0765 405.40263 358.81635 C 403.65211 361.68628 402.41286 364.68799 402.76255 368.08318 C 403.11224 371.47836 406.21744 374.84049 409.9328 375.60261 C 410.16218 375.64966 410.39272 375.69622 410.62205 375.74228 C 403.33419 383.48288 397.35161 388.81105 394.74972 391.04529 C 393.98231 391.70426 393.75174 392.93946 394.24873 393.82048 L 396.09633 397.09514 L 403.33793 392.85038 L 403.85866 409.62601 C 403.87473 410.14364 404.18235 410.55319 404.61774 410.71604 C 412.07295 409.90205 419.69186 408.63504 430.54785 407.159 C 431.83708 406.98374 432.97994 407.99715 432.9602 409.29808 C 432.64801 429.99563 432.45697 450.46398 433.31393 470.68625 C 433.60258 471.06645 434.08181 471.28202 434.62106 471.22671 C 458.21277 468.80625 477.9399 488.17053 484.90391 492.91054 C 485.95603 493.62667 487.89866 493.47817 489.05911 492.93027 C 516.33685 480.05108 557.1342 470.77468 581.14136 473.77873 C 580.41783 424.15706 579.72186 430.6883 580.68743 396.85831 A 2.1259823 2.1259823 0 0 1 582.87357 394.79362 A 2.1259823 2.1259823 0 0 1 584.93826 396.97976 C 583.94794 431.67709 584.70751 423.67717 585.4514 477.85346 C 609.39027 500.10989 653.8213 511.96766 678.11662 481.56232 L 678.51438 458.56225 C 680.36334 459.33466 681.92474 460.13623 683.10376 461.34352 A 4.2523898 4.2523898 0 0 0 689.89448 456.36548 C 687.96178 452.75556 685.10331 450.37359 682.64528 448.23727 C 681.17415 446.95868 679.83897 445.76806 678.75576 444.59673 L 679.06091 426.87833 C 680.42063 424.28147 682.25931 421.29862 684.6872 417.89996 C 696.32487 401.60912 699.19681 383.38331 697.59001 369.16107 C 696.78662 362.04995 694.90326 355.91901 692.15349 351.28478 C 689.47874 346.77693 685.55755 343.09984 680.50468 343.30687 L 681.08158 309.92109 C 661.68334 300.86334 641.90918 293.97354 620.76371 293.84837 z M 459.23189 342.37472 C 461.98925 342.38385 464.84426 342.79641 467.74268 343.70311 C 479.24588 347.3016 484.65639 359.22646 480.07314 369.18991 C 479.01765 362.96632 473.90567 353.32133 463.52372 352.82571 C 453.58125 352.35107 448.29032 368.25476 438.36635 371.5218 C 429.63452 374.3964 420.52603 373.43592 410.78753 371.4383 C 401.04894 369.44065 411.60953 352.8836 423.50208 349.83798 C 428.62105 348.52703 434.56902 349.35781 438.48325 350.83692 C 443.56298 345.9613 450.95981 342.34733 459.23189 342.37472 z M 680.97075 347.55467 C 692.29578 347.79936 702.79302 385.23993 681.22732 415.4284 C 659.25433 446.18708 680.38297 447.60788 686.14615 458.37248 C 678.27439 450.31208 664.158 455.70217 663.19315 432.59419 C 664.02718 418.4993 672.1338 407.27606 679.56342 397.79805 L 680.43181 347.56985 C 680.61186 347.55481 680.79099 347.55079 680.97075 347.55467 z M 428.68811 411.71802 C 428.58328 411.73265 428.47965 411.74747 428.37537 411.76205 C 418.17168 413.18898 410.55351 414.42675 402.87793 415.17183 C 401.83787 415.27279 400.79625 415.36451 399.74749 415.44662 C 399.58355 415.4594 399.42376 415.45016 399.26776 415.42688 C 342.46763 421.66063 291.15681 421.12908 291.15681 421.12908 C 291.15681 421.12908 291.19981 475.04399 295.19511 492.52341 C 392.10854 469.52101 423.17997 467.79576 428.94012 467.69852 C 428.25619 449.18314 428.4144 430.5145 428.68811 411.71802 z "
       transform="matrix(1.2865112,0,0,1.2865112,-249.19264,-99.107761)" /><path
       style="display:inline;fill:#02ff68;fill-opacity:1;stroke:none;stroke-width:10.9404;stroke-linecap:round;stroke-linejoin:round;stroke-dasharray:none;stroke-opacity:1;paint-order:markers stroke fill"
       d="m 296.70696,394.95868 c -1.0535,7.99548 0.6285,13.1955 -0.5209,22.83913 -0.031,0.25802 0.152,0.4435 0.4103,0.41381 7.0778,-0.81326 14.0143,-2.05046 20.3149,-5.19525 0.2326,-0.11603 0.4249,-0.42358 0.4292,-0.68356 0.1131,-6.9078 -0.7993,-15.38648 0.2517,-23.80032 0.032,-0.25708 -0.1503,-0.45447 -0.4099,-0.43884 -7.8528,0.47294 -14.5261,2.51857 -20.0199,6.13688 -0.2171,0.14302 -0.4214,0.47037 -0.4554,0.72815 z m 43.0415,-6.74711 c -1.0562,7.07184 -1.4613,12.49944 -0.8522,24.0829 0.014,0.25962 0.2083,0.57421 0.4351,0.7014 6.732,3.77592 13.7713,6.62993 21.2931,8.0365 0.2556,0.0477 0.4391,-0.12478 0.4108,-0.38322 -0.9126,-8.32729 -0.7741,-16.15248 -0.059,-23.76074 0.024,-0.25886 -0.1188,-0.60156 -0.3226,-0.76303 -5.9984,-4.75365 -12.7873,-7.53113 -20.3667,-8.33242 -0.2585,-0.0275 -0.5001,0.16146 -0.5385,0.41861 z m 65.189,53.6725 c 0.6453,10.43027 1.0881,21.06297 0.1327,33.09404 -0.021,0.25909 0.171,0.44134 0.4291,0.40958 5.3265,-0.65563 9.7758,-0.43398 16.5072,-2.49451 0.2475,-0.0757 0.4583,-0.34977 0.4711,-0.60946 0.6342,-12.8054 0.121,-21.02159 0.018,-30.8786 0,-0.25971 -0.2072,-0.41238 -0.458,-0.34356 -5.559,1.52595 -11.118,2.03093 -16.677,0.48309 -0.2505,-0.0697 -0.4391,0.0799 -0.4231,0.33942 z m 60.2239,-1.66275 c 0.757,2.6607 0.9171,10.3957 0.1729,25.81805 -0.013,0.25965 0.1879,0.46815 0.4479,0.47 4.5194,0.0319 9.0388,0.96574 13.5582,-1.84609 0.2206,-0.13723 0.379,-0.46555 0.3591,-0.72481 -0.5013,-6.53608 -1.0657,-12.88282 -0.01,-24.09623 0.024,-0.2585 -0.1613,-0.51201 -0.4167,-0.56055 -5.166,-0.98204 -9.3295,0.0404 -13.7982,0.45333 -0.2575,0.0238 -0.3865,0.23634 -0.3153,0.4863 z m 97.4078,-32.96847 c 12.6888,1.90437 23.3768,0.47411 34.4239,-0.35764 0.2583,-0.0194 0.504,0.1728 0.5507,0.42859 0.2725,1.4925 0.5764,3.00186 0.4133,5.15243 -0.02,0.25899 -0.2515,0.49182 -0.5099,0.52042 -14.7427,1.6309 -26.1913,2.23919 -33.8186,1.31182 -0.258,-0.0314 -0.5187,-0.26366 -0.5798,-0.51639 -0.5314,-2.19629 -0.8418,-4.16837 -0.9285,-6.13994 -0.012,-0.25976 0.1918,-0.43788 0.4489,-0.39929 z m -32.5466,-105.29217 c 0.4276,8.3127 0.7504,16.31122 0.047,21.23089 -0.037,0.25729 -0.2787,0.50185 -0.5353,0.54329 -5.5782,0.90051 -11.1564,0.44439 -16.7346,0.25814 -0.2595,-0.01 -0.4888,-0.22495 -0.512,-0.48392 -0.7009,-7.8243 -1.3201,-15.52603 -1.2491,-22.19245 0,-0.25882 0.1676,-0.61857 0.4134,-0.69016 2.0695,-0.6028 10.8466,0.28493 18.0775,0.82909 0.259,0.0195 0.4799,0.24545 0.4933,0.50512 z"
       id="path21"
       sodipodi:nodetypes="cccccccccccccccccccccccccccccc"
       inkscape:label="Windows" /><path
       d="m 322.07267,428.33038 c 0.0245,-0.94644 0.0562,-1.90954 0.0977,-2.88659 0.0181,-0.92961 -0.0529,-1.49688 -0.22863,-1.68698 -0.17506,-0.18938 -0.39596,-0.35197 -0.66305,-0.48706 -0.44497,-0.22506 -1.14409,-0.31114 -2.09553,-0.25029 -0.90545,0.0579 -1.631,0.13378 -2.17395,0.2233 -0.5423,0.039 -0.99455,0.0984 -1.35638,0.17679 -0.31594,0.0244 -0.65503,0.10167 -1.01691,0.23189 -0.31595,0.0761 -0.54182,0.1454 -0.67722,0.20712 -0.6783,0.30899 -1.19317,0.52977 -1.55292,0.66274 -1.09868,0.0998 -2.19553,0.20711 -3.28982,0.32254 -0.64764,-2.45255 -1.25362,-5.06351 -1.74669,-7.84022 2.59658,-2.26194 6.51817,-3.64708 11.71248,-3.91437 3.21395,-0.16538 5.73281,0.0516 7.51668,0.56502 1.80053,0.45941 3.05297,1.44267 3.81354,2.87747 0.75973,1.43323 1.18198,2.99037 1.28704,4.65335 0.15478,1.6126 0.20689,3.17886 0.14803,4.71482 -0.0422,1.10229 -0.0716,2.1899 -0.0921,3.25878 0.0317,0.697 0.026,1.15527 -0.022,1.38785 -0.002,0.18543 -0.0535,0.66727 -0.14855,1.44615 -0.0946,0.73172 -0.23006,1.34562 -0.40893,1.84764 -0.13404,0.45471 -0.37907,1.18322 -0.72985,2.17661 -0.30672,0.94746 -0.69924,1.84868 -1.17845,2.70775 -0.4347,0.85643 -0.99925,1.93892 -1.69134,3.24416 -0.69304,1.307 -1.49373,2.66132 -2.40646,4.0753 -2.69141,4.34393 -5.18364,8.17858 -7.18129,11.06473 2.68889,-0.10094 10.95304,-0.392 13.64193,-0.49294 0.34162,0.37275 0.68323,0.7475 1.02516,1.12453 -0.06,2.70442 -0.13255,5.82822 -0.16929,8.84154 -8.96936,0.4015 -17.001,0.61798 -25.62725,0.81617 0.11201,-3.62794 0.20104,-5.72165 0.31305,-9.34959 7.12679,-11.23753 10.0533,-15.68366 12.27546,-19.94907 1.75087,-3.32591 2.61821,-6.55208 2.6256,-9.76914 z m 26.9441,-14.63649 c 1.74012,-0.49379 3.84686,-0.69735 6.32253,-0.60847 4.15752,0.14927 7.10364,1.08547 8.92361,2.66594 1.82278,1.58291 2.83063,4.35593 3.34089,8.08049 0.48054,3.50759 0.5971,9.21962 0.39196,15.70164 -0.29245,9.24084 -1.44554,15.92888 -3.71133,20.10146 -2.17964,4.09393 -6.11528,6.64105 -11.83996,7.05856 -5.7063,0.41618 -9.53548,-1.62936 -11.60395,-5.79801 -2.03142,-4.09401 -2.92004,-10.96103 -2.87584,-19.69642 0.0457,-9.02111 0.74018,-15.24491 2.50621,-19.62956 1.66912,-4.14407 4.6425,-6.89789 8.54588,-7.87563 z m -0.79359,15.82555 c -0.24767,1.41003 -0.40933,2.82389 -0.49297,4.24469 -0.0875,1.46076 -0.15299,3.69662 -0.20366,7.18765 -0.0489,3.36849 -0.001,6.32132 0.13089,8.61972 0.17902,2.34037 0.40957,3.92834 0.70537,4.71111 0.33981,0.77955 0.79787,1.16086 1.37788,1.13696 1.47019,-0.0606 2.58905,-0.13122 3.34869,-0.20987 0.80651,-0.12721 1.57166,-0.41554 2.29685,-0.86008 0.77066,-0.49233 1.29671,-1.0158 1.57741,-1.57099 0.32548,-0.55688 0.61532,-1.51692 0.86853,-2.85935 0.36245,-1.92152 0.57098,-5.09264 0.68177,-9.69354 0.10604,-4.4035 0.13442,-8.1712 0.0522,-10.33409 -0.0427,-2.32052 -0.17178,-3.90284 -0.46561,-4.69362 -0.28884,-0.83515 -0.74576,-1.26342 -1.38937,-1.27054 -1.46769,-0.0162 -2.64171,0.0211 -3.52194,0.10936 -0.83454,0.0886 -1.64214,0.39126 -2.41775,0.90629 -0.7254,0.46785 -1.26688,0.98282 -1.62428,1.54099 -0.31175,0.55806 -0.62873,1.57914 -0.92399,3.03531 z m 41.58795,-1.37926 c 0.1151,-0.85843 0.24096,-1.7255 0.37948,-2.60034 0.11039,-0.83335 0.0974,-1.34437 -0.0577,-1.52743 -0.15445,-0.1823 -0.35688,-0.34403 -0.6078,-0.48487 -0.41821,-0.23474 -1.10174,-0.36519 -2.05373,-0.38836 -0.90622,-0.0221 -1.63672,-0.016 -2.18825,0.0168 -0.545,-0.0119 -1.00304,9.8e-4 -1.37356,0.0384 -0.31833,-0.006 -0.66624,0.0315 -1.04367,0.11399 -0.3252,0.0387 -0.5595,0.0791 -0.70263,0.1213 -0.71594,0.21096 -1.26166,0.35806 -1.6389,0.44119 -0.002,-3e-5 -0.875,-0.0142 -0.87666,-0.0142 0.002,9e-5 -2.47544,-0.0965 -2.47309,-0.0965 -0.32643,-2.28312 -0.5691,-4.65017 -0.67621,-7.09587 1.35566,-0.73592 2.97714,-1.26642 4.84862,-1.58318 2.07017,-0.42666 4.44049,-0.61065 7.09368,-0.54016 3.14374,0.0835 5.53893,0.40772 7.2204,0.95323 1.69483,0.4977 2.81653,1.41466 3.43117,2.71649 0.61355,1.29954 0.89471,2.70331 0.86053,4.19258 0.0183,1.44756 -0.0573,2.85833 -0.23576,4.24084 -0.12819,0.9929 -0.24053,1.97527 -0.33973,2.94595 -0.0201,0.63606 -0.0581,1.05243 -0.12235,1.26134 -0.0156,0.17017 -0.10022,0.60274 -0.24785,1.30866 -0.14366,0.66167 -0.31829,1.21368 -0.52873,1.66126 -0.16372,0.40984 -0.45202,1.05523 -0.86281,1.94659 -0.36274,0.84949 -0.80615,1.6527 -1.33365,2.41395 -0.4873,0.76926 -1.10087,1.71712 -1.86382,2.8904 -0.7589,1.16708 -1.6246,2.37575 -2.60213,3.63861 -2.91329,3.91994 -5.47458,7.307 -7.58142,9.92301 4.67341,-0.0925 9.51571,-0.17971 14.15461,-0.23542 -0.0183,-0.0171 1.07686,1.01 1.05858,0.99287 -0.0339,2.36439 -0.0625,4.94598 -0.0707,7.46504 -10.22522,0.37422 -11.26139,0.42911 -21.48661,0.80332 -1.5344,0.0524 -3.06151,0.10315 -4.59586,0.15247 0.006,-5.2e-4 -0.70669,0.06 -0.70056,0.0595 0.0181,-2.8886 0.073,-5.85683 0.13039,-8.54209 0.24334,-0.34431 0.48403,-0.68303 0.72141,-1.01556 0,0 0,0 0,0 1.69821,-2.32305 3.36266,-4.5414 4.73423,-6.35826 4.10635,-5.46603 6.58626,-8.69304 8.12842,-10.98277 2.03804,-2.99701 3.18763,-5.90891 3.50274,-8.83278 z m 14.65869,18.99646 c 0.0669,-3.12151 0.58284,-6.69271 1.64302,-10.64275 1.07726,-4.04544 2.24623,-7.38617 3.47987,-10.12381 1.15527,-2.5918 3.11226,-6.66976 6.02683,-11.72362 2.43192,0.939 4.86229,1.90059 7.27903,2.88913 0.24803,0.41913 0.49914,0.8363 0.75308,1.25142 -0.68911,1.06395 -1.35273,2.10639 -1.99358,3.12931 -2.49385,3.50273 -4.1057,7.03903 -4.90742,10.66298 0.53857,-0.16167 1.07686,-0.32204 1.61486,-0.48108 3.41671,0.29486 5.9355,1.00684 7.61142,2.04373 1.71885,1.04204 2.88778,2.74624 3.59014,5.00577 0.69789,2.20196 1.02031,5.34707 1.01553,9.26205 -0.007,5.41467 -0.82603,9.17325 -2.68602,11.39259 -1.83277,2.18685 -5.25928,3.4121 -10.28461,3.52508 -5.0567,0.11368 -8.51933,-0.99684 -10.44336,-3.44692 -1.897,-2.41565 -2.82639,-6.79279 -2.69879,-12.74388 z m 8.99834,0.22304 c -0.10941,6.51452 0.61013,9.94776 2.02023,9.94949 1.9383,0.002 3.36531,-0.26614 4.28403,-0.80204 0.48156,-0.30708 0.80892,-0.86754 0.98392,-1.67527 0.35337,-1.63105 0.52211,-3.97722 0.55639,-7.11578 0.0688,-6.29714 -0.4187,-9.64464 -1.80148,-9.75605 -2.59117,-0.20878 -4.23637,0.24202 -4.8948,1.29958 -0.66089,1.06152 -1.07552,3.76671 -1.14829,8.10007 z"
       id="text9"
       style="font-size:64px;font-family:'Chau Philomene One';-inkscape-font-specification:'Chau Philomene One, Normal';display:inline;fill:#02ff68;stroke-linecap:round;stroke-linejoin:round;paint-order:markers stroke fill"
       aria-label="2026"
       transform="matrix(1.1075575,-0.15150054,0.1439502,1.1656501,-256.63313,21.017749)"
       inkscape:transform-center-x="2.9236712"
       inkscape:transform-center-y="4.9418839"
       sodipodi:nodetypes="ccssscccscccscscsccccccsccccccccccsssscsssscccsccscccssccsccccccssscccscccscscsccccccscccccccccsccccccccccssssssscsssss"
       inkscape:label="year" /></g></svg>
