<?xml version="1.0" encoding="UTF-8" standalone="no"?>
<!-- Created with Inkscape (http://www.inkscape.org/) -->

<svg
   width="23.718903mm"
   height="25.872936mm"
   viewBox="0 0 89.646249 97.787472"
   version="1.1"
   id="svg1"
   xml:space="preserve"
   xmlns="http://www.w3.org/2000/svg"
   xmlns:svg="http://www.w3.org/2000/svg"><defs
     id="defs1" /><g
     id="layer8"
     transform="translate(-19.889803,-1026.9135)"><g
       id="g37"
       transform="matrix(1.3155517,0,0,1.280093,11.042565,1016.0114)"><path
         style="fill:#a87aff;stroke:#2c2c2c;stroke-width:1.08053;stroke-linecap:round;stroke-linejoin:round;stroke-dasharray:none;stroke-dashoffset:0;stroke-opacity:1;paint-order:normal"
         d="m 21.135838,40.15698 c -1.028,-5.44578 -0.784062,-10.89157 -0.616504,-16.33735 8.528671,-0.97337 21.896052,-0.4121 38.223247,-0.92476 0.459164,6.10724 0.562753,11.50333 0.616504,16.79974"
         id="path35" /><path
         style="fill:#a87aff;stroke:#2c2c2c;stroke-width:1.08053;stroke-linecap:square;stroke-linejoin:round;stroke-dasharray:none;stroke-dashoffset:0;stroke-opacity:1;paint-order:normal"
         d="m 23.447728,38.61572 c -2.820617,-0.21555 -5.711864,-0.28984 -8.939308,0.30826 0,0 -0.462378,10.17231 -4.6237798,12.4842 -4.1614019,2.31189 -1.233008,9.86407 2.9283938,10.17232 4.161402,0.30825 3.600996,8.16093 3.600996,8.16093 -1.491019,4.54181 -4.640705,3.96635 -5.75876,-0.45463 -0.69436,-5.73366 -2.1603572,-4.13677 -3.3907717,-4.77791 0,0 2.0096591,1.31082 1.8043715,6.28177 -0.1883173,4.55994 4.5708922,4.93203 4.5708922,4.93203 0,0 5.118109,0.5539 5.465994,-11.50335 0.229697,-7.96095 -6.348704,-5.24758 -6.284979,-8.87093 0.05291,-3.00822 2.91031,-3.48989 5.473742,-7.17687 1.717506,-2.47029 1.311386,-3.97585 2.841319,-3.69903 2.662705,0.48178 1.394318,5.24071 2.375731,7.7624 1.995208,5.1266 8.673163,7.97215 7.108496,14.89412 -1.376542,4.83069 -6.495153,5.94591 -7.679855,-0.0264 -0.210874,-1.06305 1.277346,-2.14517 2.665282,-2.13132 -7.810908,-1.77928 -4.281024,6.77116 -1.913353,8.39118 0.705252,0.48255 12.307947,4.79541 10.679834,-12.12119 -0.398142,-4.13684 -5.716804,-6.53311 -5.413106,-10.44184 0.270604,-3.48278 0.81466,-9.5102 6.202437,-8.44728 6.198236,1.22281 2.808923,12.55113 4.777906,17.68709 1.968982,5.13597 4.689121,7.44953 6.165039,11.55945 1.467646,4.08689 -3.428169,8.45315 2.582745,12.76868 -4.006729,-8.23669 3.941651,-13.27898 -1.966241,-20.93735 -4.161401,-5.39441 -1.249435,-16.04883 4.161402,-15.72086 13.533656,0.82035 -6.627376,23.1132 8.567215,26.30532 5.809198,1.22041 16.645608,0.30825 14.64197,-6.62742 -2.003638,-6.93567 -11.006396,-5.35089 -9.093434,-5.08615 6.501384,0.89973 8.936941,11.0014 -2.466016,8.16867 -10.921976,-2.71324 -1.067785,-11.84853 1.759227,-18.44489 1.242769,-4.72653 0.751001,-9.45306 -0.462378,-14.17959 l -8.939308,-0.6165"
         id="path36" /><path
         style="fill:#00fe66;fill-opacity:1;stroke:none;stroke-width:5.265;stroke-linecap:round;stroke-linejoin:round;stroke-dasharray:none;stroke-dashoffset:0;stroke-opacity:1;paint-order:markers stroke fill"
         d="m 138.09433,1.7287951 c -1.72416,16.5993749 -0.60016,33.9107919 0.29406,51.1647639 0.0154,0.296684 0.26863,0.54808 0.56573,0.562056 13.47706,0.633986 25.91236,2.049293 41.88315,0.81299 0.29585,-0.0229 0.52338,-0.283156 0.50921,-0.580246 -0.85559,-17.938097 0.79541,-35.876194 1.85114,-53.81429016 0.0174,-0.2965608 -0.20965,-0.5416678 -0.50701,-0.54802401 -15.12375,-0.32327777 -30.7933,-1.73815043 -44.02199,1.72869347 -0.28627,0.075024 -0.54356,0.378221 -0.57429,0.6740568 z m 83.85122,-1.32284286 c 0.0623,16.95932376 -1.14217,32.65178476 0.73881,51.42974276 0.0296,0.295183 0.29498,0.548445 0.59187,0.566355 13.52025,0.815599 27.0405,2.5156 40.56075,0.831633 0.29425,-0.03665 0.53002,-0.309191 0.52703,-0.606604 -0.18241,-18.16188 0.066,-36.898172 -2.04261,-52.49181855 -0.0398,-0.29445301 -0.31428,-0.53142182 -0.6117,-0.5294651 l -39.22803,0.25807918 c -0.29742,0.001957 -0.53722,0.24465221 -0.53612,0.54207771 z"
         id="path37-9"
         transform="matrix(0.411003,0,0,0.411003,-42.287,9.02353)" /></g></g></svg>
